PathFileType	4	(X/Y/Z)	D:\TRACE\v60_Jaco2_6-2-23\BothDRS_Motion2_10-platform.trc
DataRate	CameraRate	NumFrames	NumMarkers	Units	OrigDataRate	OrigDataStartFrame	OrigNumFrames
100.00	100.00	      24	5	mm	100.00	1876	      7500
Frame#	Time	Left_Front			Right_Front			Left_Aft			Right_Aft			Post			
		X1	Y1	Z1	X2	Y2	Z2	X3	Y3	Z3	X4	Y4	Z4	X5	Y5	Z5	

1876	18.750	-776.29248	4.19726	-640.28131	794.00323	5.78594	-645.51874	-684.03979	10.83376	494.88330	758.23059	10.85596	504.20853	9.85532	1301.01636	-970.35858	
1877	18.760	-775.06995	5.63079	-639.76538	794.83502	6.79925	-645.23126	-682.83838	9.70170	495.35263	759.21045	9.61421	504.63672	10.86189	1303.14819	-968.34387	
1878	18.770	-773.82281	7.41859	-639.55750	795.93213	8.62974	-644.97778	-681.86664	8.75838	495.60886	760.37390	8.58252	504.93634	12.14681	1305.27112	-966.44116	
1879	18.780	-772.98669	8.72991	-639.27380	796.97577	10.30733	-644.51465	-681.53564	8.27157	495.10645	761.23517	7.38646	505.26334	12.96694	1307.55017	-964.92218	
1880	18.790	-771.81036	10.05424	-639.23138	798.04645	11.37627	-644.10541	-680.55560	7.29956	495.77057	762.85901	6.40466	505.73236	14.16401	1310.01318	-962.90674	
1881	18.800	-770.85913	11.95451	-638.52032	798.87286	13.30443	-643.83289	-679.14081	5.90696	496.13043	763.37598	5.10030	506.15411	15.12716	1312.24365	-960.79022	
1882	18.810	-769.33240	12.59366	-637.74731	800.00830	14.77507	-643.45996	-678.47986	5.28296	496.22931	764.18097	4.00400	506.41397	15.88482	1314.78137	-958.40356	
1883	18.820	-768.89789	15.19839	-637.77020	801.06232	16.45149	-643.09100	-676.68079	3.33928	497.31570	765.06769	2.78906	506.73941	17.13380	1316.84009	-955.60376	
1884	18.830	-768.12421	16.72456	-637.23615	802.02734	17.83244	-642.85376	-676.28845	2.92616	497.33804	765.89294	1.79327	507.14294	18.39010	1319.20569	-952.99591	
1885	18.840	-767.17792	18.28018	-636.93781	802.83630	19.31462	-642.25665	-675.52063	1.84097	497.62646	767.52252	0.79146	507.40024	19.39669	1321.52393	-949.96228	
1886	18.850	-766.20374	20.12200	-636.56122	803.93091	21.07139	-641.83990	-674.29315	0.53340	498.11490	768.29749	-0.38225	507.82028	20.93444	1323.75769	-946.83661	
1887	18.860	-765.22040	21.43017	-635.86163	804.94611	22.74568	-641.38568	-673.38568	-0.46701	498.40674	768.94049	-1.75324	508.08017	21.38250	1326.23340	-943.57147	
1888	18.870	-764.21063	22.90304	-635.78265	805.95166	24.23940	-641.03815	-672.51709	-1.57215	498.80380	770.09271	-2.74638	508.33569	22.16402	1328.30920	-939.95502	
1889	18.880	-763.40912	24.70333	-635.36383	806.66071	25.70316	-640.72229	-671.55017	-2.54822	499.02005	770.85950	-3.87936	508.76782	22.97854	1330.71960	-936.35217	
1890	18.890	-762.48346	26.18467	-635.06769	807.63898	27.29156	-640.19135	-670.54114	-4.00378	499.48361	771.65607	-4.96925	509.24805	24.04962	1332.83411	-932.20502	
1891	18.900	-761.62079	27.84375	-634.41687	808.30341	28.69386	-639.81726	-670.00171	-4.69173	499.81622	772.84241	-6.01926	509.56802	24.55476	1335.23279	-928.38416	
1892	18.910	-760.89850	29.11561	-633.91986	809.12622	30.19126	-639.54340	-668.89038	-6.10757	500.22812	773.18359	-7.19499	509.89929	25.77477	1337.13721	-923.62451	
1893	18.920	-760.13824	30.50532	-633.50415	810.34503	31.73261	-638.82489	-668.14191	-6.78741	500.43393	773.92932	-8.41513	510.01208	26.13353	1339.25452	-919.24316	
1894	18.930	-759.28998	32.34229	-633.65216	810.72974	33.23988	-638.66205	-667.00995	-8.36885	501.14920	774.88544	-9.32820	509.92807	27.11242	1341.26270	-914.22253	
1895	18.940	-758.40930	33.64653	-632.94104	811.55798	34.54035	-638.29340	-666.82745	-8.85747	501.09619	775.79254	-10.37740	510.87363	28.16136	1343.23669	-909.19965	
1896	18.950	-757.51691	34.75522	-632.47516	812.25562	35.95062	-637.86353	-665.66901	-10.18311	501.66446	776.63269	-11.59302	510.95798	28.81884	1345.30505	-904.20813	
1897	18.960	-756.89758	36.38753	-632.08380	812.89539	37.43586	-637.63177	-665.03320	-11.17913	501.97067	777.05383	-12.71498	511.49329	29.21017	1347.12073	-899.27515	
1898	18.970	-756.22626	37.97205	-631.67261	813.72162	38.92037	-637.07996	-664.44550	-12.20970	502.15472	777.90033	-13.74345	511.68240	29.93690	1349.25928	-894.88953	
1899	18.980	-755.91290	39.21244	-631.13599	814.26056	40.50225	-636.70868	-663.81744	-13.23380	502.51288	778.41528	-14.87114	511.55298	30.49283	1351.12219	-891.61523	
